<?xml version="1.0" standalone="no"?>
<!DOCTYPE svg PUBLIC "-//W3C//DTD SVG 20010904//EN"
 "http://www.w3.org/TR/2001/REC-SVG-20010904/DTD/svg10.dtd">
<svg version="1.0" xmlns="http://www.w3.org/2000/svg"
 width="700.000000pt" height="700.000000pt" viewBox="0 0 700.000000 700.000000"
 preserveAspectRatio="xMidYMid meet">
<metadata>
Created by potrace 1.11, written by Peter Selinger 2001-2013
</metadata>
<g transform="translate(0.000000,700.000000) scale(0.100000,-0.100000)"
fill="#000000" stroke="none">
<path d="M5537 6923 c-79 -167 -130 -349 -141 -508 -9 -129 -59 -262 -125
-333 -34 -37 -103 -71 -142 -72 -42 0 -117 30 -149 60 -27 25 -28 30 -18 57 6
17 8 38 3 49 -17 40 -13 54 27 106 49 61 52 71 33 108 -8 15 -13 29 -11 31 2
2 7 33 11 69 3 36 8 76 10 90 5 41 16 113 21 143 3 22 0 29 -18 36 -14 5 -28
5 -36 -2 -7 -5 -51 -66 -99 -134 -61 -88 -96 -128 -120 -139 -36 -18 -44 -37
-47 -112 -1 -42 -5 -50 -38 -75 -21 -16 -39 -40 -43 -57 -8 -36 -27 -31 -55
15 -24 38 -26 88 -5 105 32 26 18 41 -32 34 -51 -6 -113 -45 -113 -70 0 -22
-22 -26 -66 -11 -85 31 -202 1 -278 -70 -27 -24 -27 -25 -10 -51 33 -50 107
-98 194 -127 118 -38 123 -48 40 -90 -61 -31 -65 -37 -37 -62 30 -28 58 -41
82 -37 11 1 46 6 78 10 l57 7 1 -34 c0 -19 2 -42 4 -51 3 -16 -24 -91 -132
-368 -14 -36 -29 -74 -34 -85 -4 -11 -36 -92 -70 -180 -34 -88 -63 -161 -64
-163 -10 -13 -549 236 -603 279 -14 10 -29 19 -34 19 -5 0 -24 11 -42 25 -18
14 -36 25 -40 25 -4 0 -41 -20 -81 -45 -173 -105 -430 -223 -717 -330 l-86
-32 -18 41 c-10 22 -25 59 -35 81 -19 44 -53 127 -106 255 -19 47 -41 100 -50
117 -14 29 -13 38 2 87 10 31 15 64 12 76 -3 11 -2 20 1 21 4 0 14 2 23 4 12
2 28 -26 61 -108 46 -112 62 -136 65 -95 4 52 34 106 66 122 18 8 40 14 48 13
56 -9 117 -106 139 -222 7 -39 17 -74 20 -78 11 -13 74 47 123 116 53 76 91
155 113 239 19 72 28 281 14 343 -5 22 -12 56 -15 75 -20 122 -102 302 -195
427 -95 128 -221 231 -344 280 -88 35 -286 45 -286 15 0 -4 10 -19 23 -34 50
-59 57 -68 57 -73 0 -13 53 -80 62 -77 5 1 6 -2 3 -8 -4 -6 1 -28 11 -48 28
-57 25 -226 -6 -306 -11 -31 -2 -45 30 -46 8 0 26 -9 39 -19 22 -16 23 -23 15
-51 -5 -18 -21 -42 -36 -53 -23 -18 -31 -19 -54 -8 -35 15 -52 1 -61 -51 -6
-38 -38 -82 -53 -73 -4 3 -5 15 -3 28 8 40 -83 96 -147 90 -80 -7 -170 -52
-214 -106 -36 -45 -43 -127 -12 -150 35 -26 -1 -27 -48 -2 -62 33 -90 33 -84
0 3 -13 2 -23 -1 -22 -3 1 -15 -4 -26 -10 -41 -22 -115 10 -115 50 0 13 7 32
15 43 23 30 18 39 -36 68 -87 48 -163 119 -191 177 -23 49 -40 99 -43 124 -1
6 -5 30 -10 55 -9 46 -12 65 -14 100 -2 33 -24 23 -83 -35 -83 -82 -140 -202
-155 -325 -58 -461 243 -967 642 -1077 28 -7 99 -16 160 -20 l109 -6 -19 29
c-48 73 -93 152 -103 183 -34 98 4 167 86 158 24 -3 60 -16 80 -31 20 -14 37
-24 39 -22 2 2 -9 32 -25 67 -16 35 -35 80 -42 99 -7 19 -18 41 -23 48 -6 8
-5 17 4 28 11 14 14 14 28 -5 9 -11 41 -33 71 -48 30 -16 55 -32 56 -38 0 -5
8 -27 17 -49 9 -21 17 -40 17 -42 0 -2 11 -27 24 -56 13 -29 40 -93 61 -143
21 -49 48 -113 60 -142 17 -38 20 -54 12 -61 -17 -12 -232 -75 -557 -163 -25
-7 -99 -26 -164 -43 -66 -17 -121 -36 -123 -42 -2 -7 24 -31 59 -54 80 -55
160 -138 220 -230 73 -112 118 -216 149 -340 29 -120 18 -393 -26 -640 -4 -19
-8 -46 -10 -60 -2 -14 -11 -71 -19 -127 -37 -239 -42 -568 -12 -708 26 -117
60 -231 91 -300 l23 -52 -42 41 c-45 45 -117 90 -236 146 -163 78 -203 108
-242 181 -20 38 -23 58 -22 144 0 96 10 143 59 268 21 52 -78 -10 -160 -102
-56 -62 -112 -179 -117 -242 -1 -16 -5 -29 -9 -29 -13 0 -60 112 -75 182 -22
99 -22 98 -34 98 -17 0 -46 -57 -81 -159 -29 -86 -33 -108 -33 -206 0 -103 2
-114 32 -177 34 -71 107 -145 179 -183 21 -11 80 -44 131 -72 52 -29 96 -53
98 -53 9 0 184 -121 218 -151 33 -29 34 -31 22 -62 -8 -18 -12 -50 -10 -72 9
-89 5 -134 -21 -210 -23 -67 -26 -92 -23 -165 2 -72 8 -96 35 -151 49 -99 136
-170 254 -208 94 -30 236 -49 353 -46 125 2 207 18 321 59 36 13 65 22 65 21
0 -1 -15 -40 -34 -86 -18 -46 -61 -158 -95 -249 -35 -91 -66 -174 -71 -185
-53 -128 -70 -179 -63 -185 8 -8 173 -74 209 -85 20 -5 25 4 59 92 20 54 43
112 49 128 7 17 18 44 24 60 21 58 94 250 103 270 5 11 31 81 59 155 28 74 57
149 64 165 8 17 17 41 21 55 23 76 58 68 220 -54 91 -68 203 -181 243 -243 15
-24 32 -45 38 -47 6 -2 32 24 58 59 63 86 195 208 299 278 48 32 93 60 100 63
13 5 21 -8 46 -69 6 -15 15 -26 20 -23 5 4 7 -4 3 -16 -4 -16 -2 -19 8 -13 9
5 11 4 6 -4 -10 -16 13 -73 27 -64 6 4 7 1 3 -6 -10 -16 13 -73 27 -64 5 3 7
1 3 -5 -3 -6 -1 -23 6 -39 13 -32 15 -38 17 -55 1 -9 4 -9 12 2 9 13 10 12 5
-3 -7 -23 44 -148 57 -140 6 3 7 1 3 -5 -4 -7 -1 -26 7 -44 8 -18 24 -54 36
-80 11 -26 21 -50 21 -53 0 -2 13 -33 28 -67 16 -35 39 -89 51 -120 13 -32 27
-56 31 -53 5 3 6 -5 2 -17 -4 -16 -2 -19 8 -13 8 5 11 4 7 -2 -8 -14 54 -164
65 -157 4 3 6 -1 3 -8 -3 -7 -1 -19 4 -26 6 -11 29 -4 107 29 54 23 103 45
108 50 12 11 -55 180 -68 172 -5 -3 -6 -1 -3 4 6 9 -10 53 -53 148 -5 11 -12
30 -15 43 -4 12 -11 20 -16 17 -5 -3 -6 2 -2 11 5 13 3 15 -7 9 -9 -5 -11 -4
-6 3 6 10 -27 98 -95 247 -15 33 -33 77 -40 97 -7 20 -17 34 -22 31 -6 -3 -7
-1 -4 4 9 15 -17 75 -28 66 -4 -5 -5 -2 -1 4 4 7 2 22 -4 33 -11 21 -11 21 27
4 73 -33 179 -67 257 -84 169 -37 434 -9 587 61 187 86 265 285 194 494 -26
79 -27 95 -4 175 15 55 6 111 -22 136 -20 18 -20 18 8 42 55 49 190 131 339
205 101 51 164 90 191 118 129 130 154 335 71 584 -22 65 -43 95 -56 80 -5 -6
-14 -39 -21 -75 -6 -36 -28 -99 -48 -140 l-36 -75 -8 45 c-5 25 -12 54 -17 65
-20 48 -58 122 -72 140 -32 42 -151 155 -165 155 -26 0 -26 -19 0 -60 71 -112
67 -300 -7 -411 -35 -51 -103 -97 -258 -173 -134 -65 -154 -78 -220 -135 -91
-79 -119 -178 -93 -321 6 -28 4 -76 -3 -128 -7 -46 -10 -95 -8 -110 7 -37 40
-87 76 -116 l31 -24 -24 -16 c-14 -8 -58 -27 -99 -40 -107 -35 -250 -32 -367
8 -121 42 -123 44 -66 88 150 117 320 316 429 503 66 114 132 279 159 400 2 6
7 28 13 50 35 134 42 416 17 615 -12 95 -26 187 -35 240 -5 30 -12 75 -15 100
-4 25 -13 88 -21 140 -23 143 -27 359 -8 454 45 232 206 486 381 602 29 19 53
39 53 44 0 13 -30 27 -75 35 -22 4 -89 21 -149 37 -59 16 -117 31 -127 33 -79
15 -649 191 -649 200 0 7 40 112 58 155 6 14 48 122 92 240 45 118 86 224 91
235 4 11 18 46 29 78 14 38 32 65 54 82 19 15 38 42 46 65 8 23 18 44 23 47
25 15 127 4 167 -18 131 -74 143 -323 22 -445 -53 -55 -101 -76 -172 -77 -63
-1 -90 4 -145 27 -49 21 -57 10 -38 -52 51 -171 247 -268 443 -218 131 33 295
133 377 231 90 107 159 270 187 441 15 88 16 376 3 434 -4 14 -9 41 -11 60 -3
19 -8 46 -10 60 -14 65 -16 78 -22 115 -3 22 -7 42 -9 45 -4 7 -35 177 -41
230 -3 19 -7 46 -9 60 -5 23 -8 216 -4 236 3 19 -1 44 -9 44 -4 0 -24 -35 -45
-77z m-4352 -882 c3 -5 2 -12 -3 -15 -5 -3 -9 1 -9 9 0 17 3 19 12 6z m1023
-4276 c61 -78 247 -266 305 -310 21 -15 34 -31 30 -35 -4 -5 -42 -20 -83 -35
-132 -47 -269 -45 -401 5 -86 32 -87 34 -46 69 56 50 80 109 71 173 -4 29 -7
80 -5 113 6 109 5 150 -2 185 -6 31 -3 28 34 -30 23 -36 66 -96 97 -135z"/>
</g>
</svg>
